<svg version="1.0" id="Calque_1" xmlns="http://www.w3.org/2000/svg" x="0" y="0"
	viewBox="0 0 425 425" style="enable-background:new 0 0 424.6 424.6" fill="#d9d9d9"
	xml:space="preserve"><switch><g><path class="st0" d="M260.4 266.9c48.9 0 88.7-39.8 88.7-88.7s-39.8-88.7-88.7-88.7c-48.9 0-88.7 39.8-88.7 88.7s39.8 88.7 88.7 88.7zm9.2-171.6c42.4 4.7 74.2 40.1 74.2 82.9 0 46-37.4 83.5-83.5 83.5-46 0-83.5-37.4-83.5-83.5 0-42.8 31.8-78.3 74.2-82.9-1 1.6-1.6 3.5-1.6 5.6 0 5.2 3.6 9.5 8.5 10.5v1.8c-6.1-1.2-10.8-6.8-10.8-13.6v-.9l.1-1.1-1.1.2c-18.7 3.3-35.8 13.1-48.2 27.6-12.5 14.7-19.4 33.5-19.4 52.9 0 45.1 36.7 81.7 81.7 81.7 45.1 0 81.7-36.7 81.7-81.7 0-19.4-6.9-38.1-19.4-52.9-12.4-14.6-29.5-24.4-48.2-27.6l-1.1-.2.1 1.1v.9c0 7-5 12.8-11.4 13.7v-1.7c5.1-.8 9.1-5.3 9.1-10.7.2-2.1-.4-4-1.4-5.6zm28.8 123.5h-37.9v15.1H259.3v-15h-36.9c-10.8-10.2-17.6-24.6-17.6-40.6 0-19.3 10.2-37.5 26.7-47.5.8.9 1.6 1.7 2.4 2.5-2.9-.4-4.4 1.1-3.9 7 1.1 12.5 12 22.8 27.1 24-5.3-1.3-9.3-5.8-9.3-11.2 0-4.8 3.1-8.9 7.6-10.7.4 0 .8.1 1.2.1-4.8 1.4-8.3 5.6-8.3 10.6 0 6.1 5.3 11.1 11.7 11.1 6.5 0 11.7-5 11.7-11.1 0-5-3.5-9.2-8.3-10.6.4 0 .8-.1 1.2-.1 4.5 1.7 7.6 5.8 7.6 10.7 0 5.3-3.9 9.8-9.1 11.1 14.8-1.3 25.2-11.6 26.5-23.9.6-5.9-1.3-7-4.8-6.1 1.4-1.2 2.7-2.4 3.8-3.8 16.9 10 27.3 28.3 27.3 47.9.1 15.9-6.7 30.3-17.5 40.5zm-33-63.8c-1.1 0-2-.9-2-2s.9-2 2-2 2 .9 2 2-.9 2-2 2zm2 3.4c0 1.1-.9 2-2 2s-2-.9-2-2 .9-2 2-2 2 .8 2 2zm-2-8.8c-1.1 0-2-.9-2-2s.9-2 2-2 2 .9 2 2-.9 2-2 2zm-10.9 5.4c-1.1 0-2-.9-2-2s.9-2 2-2 2 .9 2 2-.8 2-2 2zm2.1 3.4c0 1.1-.9 2-2 2s-2-.9-2-2 .9-2 2-2c1.1-.1 2 .8 2 2zm-2.1-8.8c-1.1 0-2-.9-2-2s.9-2 2-2 2 .9 2 2c.1 1.1-.8 2-2 2zm5.5 5.4c-1.1 0-2-.9-2-2s.9-2 2-2 2 .9 2 2-.9 2-2 2zm2 3.4c0 1.1-.9 2-2 2s-2-.9-2-2 .9-2 2-2c1.1-.1 2 .8 2 2zm-2-8.8c-1.1 0-2-.9-2-2s.9-2 2-2 2 .9 2 2-.9 2-2 2zm-2-8.8c-3.1-.1-6.1-.6-8.9-1.3-3.9-1.4-7.4-3.3-10.3-4.6-2.4-1.6-4.6-3.6-6.5-5.9l-.5-.6-.6.4c-8.4 5-15.5 12.1-20.4 20.6-5.1 8.7-7.8 18.7-7.8 28.8 0 31.6 25.7 57.3 57.3 57.3 31.6 0 57.3-25.7 57.3-57.3 0-20.5-11-39.5-28.8-49.7l-.6-.4-.5.6c-5.9 7.4-14.9 11.6-25.7 12.1v-2.2c10.9-.4 20.6-5 26.4-12.4 19.1 10.4 31 30.2 31 52 0 32.6-26.5 59.1-59.1 59.1s-59.1-26.5-59.1-59.1c0-21.8 11.9-41.6 31-52 5.7 7.3 15.2 11.8 25.8 12.3v2.3zm-24.8-16.2-.4-.6-.7.3c-20.1 10.6-32.5 31.2-32.5 53.9 0 33.5 27.3 60.8 60.8 60.8s60.8-27.3 60.8-60.8c0-22.7-12.5-43.3-32.5-53.9l-.7-.3-.4.6c-5.4 7.3-14.8 11.8-25.5 12.3v-2.1c10.4-.5 19.7-5.3 25.2-13.1C309 132 323 154.2 323 178.2c0 34.5-28.1 62.6-62.6 62.6s-62.6-28.1-62.6-62.6c0-23.9 13.8-45.9 35.2-56.3 5.5 7.6 14.7 12.3 25 12.9v2c-10.4-.6-19.5-5-24.8-12.2zm24.8 8.5c-10-.6-18.9-5.2-24-12.8l-.4-.6-.7.3c-10.9 5.1-20.1 13.2-26.6 23.3-6.7 10.4-10.3 22.4-10.3 34.9 0 35.5 28.8 64.3 64.3 64.3s64.3-28.8 64.3-64.3c0-25-14.7-47.9-37.3-58.4l-.7-.3-.4.6c-5.1 7.6-14 12.4-24.2 13v-1.8c9.6-.6 18.5-5.8 23.7-14 24.7 10.3 40.6 34.2 40.6 61 0 36.4-29.6 66.1-66.1 66.1-36.4 0-66.1-29.6-66.1-66.1 0-26.8 15.9-50.7 40.6-61 5 8 13.7 13.2 23.1 14v1.8zm0-3.6c-9-.8-17.3-5.9-22-13.8l-.4-.6-.7.3c-12.4 5-22.9 13.5-30.5 24.5-7.8 11.3-11.9 24.6-11.9 38.3 0 37.4 30.4 67.8 67.8 67.8s67.8-30.4 67.8-67.8c0-13.8-4.1-27-11.9-38.3-7.6-11-18.1-19.5-30.5-24.5l-.7-.3-.4.6c-4.8 8.1-13.3 13.2-22.6 13.8v-2.2c9.2-.6 17.5-6 22-14.5 27.5 10 45.8 36.1 45.8 65.4 0 38.3-31.2 69.5-69.5 69.5s-69.5-31.2-69.5-69.5c0-29.3 18.4-55.4 45.8-65.4 4.4 8.3 12.4 13.7 21.4 14.5v2.2zm-20.2-18.1-.3-.7-.7.3c-28.5 10-47.7 37-47.7 67.3 0 39.3 32 71.3 71.3 71.3s71.3-32 71.3-71.3c0-30.2-19.2-57.3-47.7-67.3l-.7-.3-.3.7c-4.1 8.3-12 13.6-20.8 14.2v-2.2c8.7-.7 16.4-6.6 19.6-15.1 30.5 9.3 51.7 37.9 51.7 69.9 0 40.3-32.8 73-73 73-40.3 0-73-32.8-73-73 0-31.9 21.2-60.5 51.6-69.8 3.2 8.4 10.6 14.1 19.1 15v2.1c-8.8-.8-16.4-6-20.4-14.1zm20.2 10.3c-8-.9-15-6.5-17.7-14.6l-.3-.8-.8.2c-15.2 4.5-28.8 13.9-38.4 26.5-9.9 13.1-15.2 28.7-15.2 45.2 0 41.2 33.5 74.7 74.7 74.7s74.7-33.5 74.7-74.7c0-16.5-5.3-32.1-15.2-45.2-9.6-12.7-23.3-22.1-38.5-26.5l-.8-.2-.3.8c-2.8 8.3-10 14-18.2 14.7v-2.5c8.3-.8 15.2-7 16.8-15.3 34.2 8.5 58 38.9 58 74.3 0 42.2-34.3 76.5-76.5 76.5s-76.5-34.3-76.5-76.5c0-35.4 23.8-65.8 58-74.3 1.5 8 8.1 14.2 16.2 15.2v2.5zm0-4.3c-7.5-1-13.6-7-14.6-14.6l-.1-.9-.9.2c-16.9 4-32.2 13.6-43.1 27.2-11.2 14-17.2 30.9-17.2 48.9 0 43.1 35.1 78.2 78.2 78.2s78.2-35.1 78.2-78.2c0-18-5.9-34.9-17.2-48.9-10.9-13.6-26.2-23.3-43.1-27.2l-.9-.2-.1.9c-1.1 7.9-7.5 13.9-15.2 14.7V115c7.4-.9 13.1-7.4 13.1-15.4 37.8 7.1 65.1 40 65.1 78.6 0 44.1-35.9 80-80 80s-80-35.9-80-80c0-38.6 27.3-71.5 65.1-78.6 0 7.7 5.5 14.1 12.5 15.3v2.5zm2.4-9.2c-1.1 0-2-.9-2-2s.9-2 2-2 2 .9 2 2-.9 2-2 2zm0-5.4c-1.1 0-2-.9-2-2s.9-2 2-2 2 .9 2 2-.9 2-2 2zm0-5.4c-1.1 0-2-.9-2-2s.9-2 2-2 2 .9 2 2-.9 2-2 2zm-3.4-2c0 1.1-.9 2-2 2s-2-.9-2-2 .9-2 2-2 2 .9 2 2zm-2 3.4c1.1 0 2 .9 2 2s-.9 2-2 2-2-.9-2-2 .9-2 2-2zm0 5.4c1.1 0 2 .9 2 2s-.9 2-2 2-2-.9-2-2 .9-2 2-2zm10.9 0c1.1 0 2 .9 2 2s-.9 2-2 2-2-.9-2-2 .9-2 2-2zm-2-3.4c0-1.1.9-2 2-2s2 .9 2 2-.9 2-2 2-2-.9-2-2zm2-3.4c-1.1 0-2-.9-2-2s.9-2 2-2 2 .9 2 2-.9 2-2 2zm-10.9-6c-1.1.6-2.1 1.4-2.9 2.4v-.4c-21 2-40.4 11.7-54.6 27.4-14.4 15.7-22.3 36.1-22.3 57.4 0 47 38.2 85.2 85.2 85.2s85.2-38.2 85.2-85.2c0-21.3-7.9-41.8-22.3-57.5-14.3-15.6-33.7-25.3-54.7-27.3v.3c-.8-.9-1.7-1.7-2.8-2.3 45.5 2.8 81.6 40.6 81.6 86.8 0 47.9-39 87-87 87-47.9 0-87-39-87-87 0-46.2 36.2-84 81.6-86.8z"/><path class="st0" d="M260 205c-2.1 0-3.8 1.7-3.8 3.8 0 2.1 1.7 3.8 3.8 3.8s3.8-1.7 3.8-3.8c0-2.1-1.7-3.8-3.8-3.8z"/><path class="st0" d="M374.7 187.4c.2-3.1.4-6.1.4-9.2 0-63.2-51.4-114.7-114.7-114.7-42.4 0-81.2 23.5-101.1 60.5-4.2-.7-8.4-1.1-12.6-1.1-18.2 0-35.8 6.6-49.6 18.4-11.7 10.1-19.9 23.4-23.8 38.1-18.4 3.4-35.3 12.7-48.1 26.6-14.6 16-22.7 36.7-22.7 58.4 0 47.7 38.8 86.4 86.4 86.4h53.5c5.6 0 10.2-4.6 10.2-10.2s-4.6-10.2-10.2-10.2H88.9c-36.4 0-66-29.6-66-66 0-34.3 25.7-62.5 59.8-65.7l7.9-.7 1.2-7.9c4.2-27.2 27.3-46.9 54.8-46.9 5.2 0 10.4.7 15.4 2.2l8.5 2.5 3.6-8.1c15.1-34 49-56 86.2-56 52 0 94.3 42.3 94.3 94.3 0 4.6-.3 9.3-1 13.9l-1.2 8 7.5 3c25.4 10 41.8 34.1 41.8 61.4 0 36.4-29.6 66-66 66h-53.5c-5.6 0-10.2 4.6-10.2 10.2s4.6 10.2 10.2 10.2h53.5c47.7 0 86.4-38.8 86.4-86.4.1-32.9-18.3-62.4-47.4-77z"/><path class="st0" d="m206.3 369.3-15.5 15.5V288c0-5.6-4.6-10.2-10.2-10.2s-10.2 4.6-10.2 10.2v96.8l-15.5-15.5c-4-4-10.5-4-14.4 0-4 4-4 10.5 0 14.4l25.9 25.9c3.8 3.8 8.9 5.9 14.3 5.9s10.5-2.1 14.3-5.9l25.9-25.9c4-4 4-10.5 0-14.4-4.1-4-10.6-4-14.6 0z"/><path class="st0" d="M276.9 327c2.6 0 5.2-1 7.2-3 4-4 4-10.5 0-14.4l-25.9-25.9c-3.8-3.8-8.9-5.9-14.3-5.9s-10.5 2.1-14.3 5.9l-25.9 25.9c-4 4-4 10.5 0 14.4 4 4 10.5 4 14.4 0l15.5-15.5v96.8c0 5.6 4.6 10.2 10.2 10.2s10.2-4.6 10.2-10.2v-96.8l15.5 15.5c2.2 2 4.8 3 7.4 3z"/></g></switch></svg>