<svg version="1.0" id="Calque_1" xmlns="http://www.w3.org/2000/svg" x="0" y="0"
	viewBox="0 0 425 425" style="enable-background:new 0 0 424.6 424.6" fill="#d9d9d9"
	xml:space="preserve"><switch><g><path d="M275.7 258.3c-18.9 10-40.5 15.7-63.4 15.7s-44.5-5.7-63.4-15.7C71.6 279.9 16 340 16 410.7h392.7c0-70.7-55.6-130.8-132.9-152.4h-.1z" fill="#dadada"/><path class="st1" d="M212 195.4v22.4c21.4 0 40.8-8.5 55.1-22.4H212zM210.3 195.4h-53.6c13.9 13.5 32.8 21.9 53.6 22.3v-22.3z"/><path class="st1" d="M211.9 258.1c-66 0-119.6-53.7-119.6-119.6 0-29.9 11.1-58.6 31.3-80.7 20-21.9 47.3-35.6 76.7-38.4l.2 2.4c-60.3 5.8-105.8 56-105.8 116.7 0 64.6 52.6 117.2 117.2 117.2s117.2-52.6 117.2-117.2c0-60.8-45.6-111-106-116.7l.2-2.4c29.5 2.8 56.8 16.4 76.9 38.4 20.2 22.1 31.3 50.8 31.3 80.7 0 65.9-53.7 119.6-119.6 119.6z"/><path class="st1" d="M211.9 263c-68.7 0-124.5-55.9-124.5-124.5S143.2 13.9 211.9 13.9s124.5 55.9 124.5 124.5S280.5 263 211.9 263zm0-246.7c-67.3 0-122.1 54.8-122.1 122.1s54.8 122.1 122.1 122.1S334 205.7 334 138.4 279.2 16.3 211.9 16.3z"/><path class="st1" d="M211.9 219c-44.4 0-80.5-36.1-80.5-80.5 0-14.3 3.8-28.3 10.9-40.5 6.9-11.9 16.9-21.9 28.7-28.9l.9-.5.7.8c8.7 10.7 22.5 16.6 38.8 16.6 16.5 0 30.4-6.1 39.1-17.1l.6-.8.9.5c24.9 14.3 40.4 41.1 40.4 69.9 0 44.4-36.1 80.5-80.5 80.5zM171.3 71.7c-23.2 14.1-37.5 39.6-37.5 66.8 0 43.1 35 78.1 78.1 78.1s78.1-35 78.1-78.1c0-27.5-14.7-53.2-38.4-67.3-9.3 11.1-23.6 17.2-40.4 17.2-16.5 0-30.7-6-39.9-16.7z"/><path class="st1" d="M211.9 223.9c-47.1 0-85.4-38.3-85.4-85.4 0-31.8 17.5-60.8 45.7-75.6l.9-.5.6.8c8 10.8 22.3 17.3 38.2 17.3S242 74 250.1 63.1l.6-.8.9.5c28.2 14.8 45.7 43.8 45.7 75.6 0 47.1-38.3 85.5-85.4 85.5zM172.4 65.4c-26.9 14.6-43.5 42.4-43.5 73 0 45.8 37.2 83 83 83s83-37.2 83-83c0-30.6-16.6-58.5-43.5-73-8.6 10.9-23.2 17.4-39.5 17.4s-31-6.5-39.5-17.4z"/><path class="st1" d="M211.9 228.8c-49.8 0-90.3-40.5-90.3-90.3 0-17.5 5-34.4 14.4-49 9.2-14.2 22.1-25.5 37.4-32.7l.9-.4.6.9c7.7 11.3 21.3 18 36.6 18 15.4 0 29.2-6.8 36.8-18.3l.6-.9.9.4c31.9 14.7 52.4 46.9 52.4 82 0 49.7-40.5 90.3-90.3 90.3zM173.5 59.4c-30.1 14.6-49.5 45.5-49.5 79 0 48.5 39.4 87.9 87.9 87.9s87.9-39.4 87.9-87.9c0-33.8-19.6-64.8-50.1-79.4-8.2 11.6-22.4 18.5-38.2 18.5-15.7.1-29.8-6.7-38-18.1z"/><path class="st1" d="M211.9 233.6c-52.5 0-95.2-42.7-95.2-95.2 0-19.3 5.8-38 16.7-53.8 10.7-15.5 25.5-27.4 42.9-34.4l1-.4.5.9c7.1 12 20.2 19.5 34.2 19.5 13.9 0 27-7.5 34.2-19.5l.5-.9 1 .4c17.4 7 32.2 18.9 42.9 34.4 10.9 15.9 16.7 34.5 16.7 53.8-.2 52.5-42.9 95.2-95.4 95.2zM176.2 52.8c-34.7 14.5-57.1 48-57.1 85.7 0 51.2 41.6 92.8 92.8 92.8s92.8-41.6 92.8-92.8c0-37.7-22.4-71.2-57.1-85.7-7.7 12.2-21.3 19.8-35.7 19.8-14.5-.1-28.1-7.6-35.7-19.8z"/><path class="st1" d="M211.9 238.5c-55.2 0-100.1-44.9-100.1-100.1 0-42.5 26.9-80.4 67-94.5l1-.4.5 1c6.1 12.4 18.2 20.1 31.6 20.1 13.4 0 25.5-7.7 31.6-20.1l.5-1 1 .4c40.1 14 67 52 67 94.5 0 55.2-44.9 100.1-100.1 100.1zM178.6 46.6c-38.6 14-64.4 50.8-64.4 91.8 0 53.9 43.8 97.7 97.7 97.7s97.7-43.8 97.7-97.7c0-41.1-25.8-77.9-64.4-91.8-6.7 12.7-19.3 20.5-33.3 20.5-14 0-26.7-7.8-33.3-20.5z"/><path class="st1" d="M211.9 243.4c-57.9 0-105-47.1-105-105 0-23.1 7.4-45.1 21.3-63.4 13.5-17.8 32.7-31 54-37.3l1.1-.3.4 1.1c4.2 12.4 15.5 20.7 28.1 20.7 12.6 0 23.9-8.4 28.1-20.8l.4-1.1 1.1.3c21.3 6.2 40.6 19.5 54.1 37.3 14 18.4 21.4 40.3 21.4 63.5-.1 57.9-47.1 105-105 105zm-30.1-203c-42.7 13.1-72.5 53.3-72.5 98.1 0 56.6 46 102.6 102.6 102.6s102.6-46 102.6-102.6c0-44.9-29.8-85.1-72.6-98.1-4.8 12.8-16.7 21.3-30 21.3-13.4 0-25.3-8.6-30.1-21.3z"/><path class="st1" d="M211.9 248.3C151.3 248.3 102 199 102 138.4c0-25.3 8.3-49 24.1-68.7 15.3-19.1 36.8-32.7 60.5-38.3l1.3-.3.2 1.3c1.6 11.9 11.8 20.8 23.8 20.8s22.2-8.9 23.8-20.8l.2-1.3 1.3.3c23.7 5.6 45.2 19.2 60.5 38.3 15.8 19.7 24.1 43.4 24.1 68.7-.1 60.6-49.4 109.9-109.9 109.9zm-26-214.1c-48 11.9-81.5 54.6-81.5 104.3 0 59.3 48.2 107.5 107.5 107.5s107.5-48.2 107.5-107.5c0-49.7-33.4-92.4-81.5-104.3-2.3 12.4-13.3 21.6-26 21.6-12.8-.1-23.7-9.3-26-21.6z"/><path class="st1" d="M211.9 253.2c-63.3 0-114.8-51.5-114.8-114.8 0-27.2 9.7-53.5 27.2-74.2C141.7 43.8 165.8 30 192 25.4l1.5-.3-.1 1.5v1.3c0 10.7 8.3 19.4 18.5 19.4s18.5-8.7 18.5-19.4v-1.3l-.1-1.5 1.5.3C258 30 282 43.8 299.4 64.2c17.6 20.7 27.2 47.1 27.2 74.2 0 63.3-51.5 114.8-114.7 114.8zM191 28c-53.1 10-91.5 56.2-91.5 110.4 0 61.9 50.4 112.3 112.3 112.3s112.3-50.4 112.3-112.3c0-54.2-38.4-100.4-91.5-110.4 0 12-9.4 21.7-20.9 21.7C200.4 49.8 191 40 191 28z"/><path class="st2" d="M208.6 43.2h5.7V89h-5.7z"/><path class="st1" d="M194.2 103c0-8 6.2-14.7 14.4-16-22.1-1.8-41.4-24.7-39.4-2 1.6 17.5 16.9 32 38 33.6-7.5-1.7-13-8-13-15.6zM214.1 87c8.2 1.2 14.4 7.9 14.4 16 0 7.5-5.4 13.8-12.8 15.6 20.7-1.9 35.4-16.3 37.3-33.6 2.2-20.3-16.9.3-38.9 2z"/><path class="st2" d="M227.8 103c0-8.6-7.4-15.5-16.5-15.5s-16.5 7-16.5 15.5 7.4 15.5 16.5 15.5 16.5-6.9 16.5-15.5zm-24.1 10.4c-1.6 0-2.8-1.3-2.8-2.8 0-1.6 1.3-2.8 2.8-2.8 1.6 0 2.8 1.3 2.8 2.8 0 1.5-1.2 2.8-2.8 2.8zm0-7.6c-1.6 0-2.8-1.3-2.8-2.8 0-1.6 1.3-2.8 2.8-2.8 1.6 0 2.8 1.3 2.8 2.8 0 1.6-1.2 2.8-2.8 2.8zm0-7.5c-1.6 0-2.8-1.3-2.8-2.8 0-1.6 1.3-2.8 2.8-2.8 1.6 0 2.8 1.3 2.8 2.8 0 1.5-1.2 2.8-2.8 2.8zm7.6 15.1c-1.6 0-2.8-1.3-2.8-2.8 0-1.6 1.3-2.8 2.8-2.8 1.6 0 2.8 1.3 2.8 2.8.1 1.5-1.2 2.8-2.8 2.8zm0-7.6c-1.6 0-2.8-1.3-2.8-2.8 0-1.6 1.3-2.8 2.8-2.8 1.6 0 2.8 1.3 2.8 2.8.1 1.6-1.2 2.8-2.8 2.8zm0-7.5c-1.6 0-2.8-1.3-2.8-2.8 0-1.6 1.3-2.8 2.8-2.8 1.6 0 2.8 1.3 2.8 2.8.1 1.5-1.2 2.8-2.8 2.8zm7.7 15.1c-1.6 0-2.8-1.3-2.8-2.8 0-1.6 1.3-2.8 2.8-2.8 1.6 0 2.8 1.3 2.8 2.8 0 1.5-1.2 2.8-2.8 2.8zm0-7.6c-1.6 0-2.8-1.3-2.8-2.8 0-1.6 1.3-2.8 2.8-2.8 1.6 0 2.8 1.3 2.8 2.8 0 1.6-1.2 2.8-2.8 2.8zm0-7.5c-1.6 0-2.8-1.3-2.8-2.8 0-1.6 1.3-2.8 2.8-2.8 1.6 0 2.8 1.3 2.8 2.8 0 1.5-1.2 2.8-2.8 2.8zM211.9 14.6c-8.4 0-15.2 6.8-15.2 15.2S203.5 45 211.9 45c8.4 0 15.2-6.8 15.2-15.2s-6.9-15.2-15.2-15.2zm-7.6 25.6c-1.6 0-2.8-1.3-2.8-2.8 0-1.6 1.3-2.8 2.8-2.8 1.6 0 2.8 1.3 2.8 2.8.1 1.5-1.2 2.8-2.8 2.8zm0-7.6c-1.6 0-2.8-1.3-2.8-2.8 0-1.6 1.3-2.8 2.8-2.8 1.6 0 2.8 1.3 2.8 2.8.1 1.5-1.2 2.8-2.8 2.8zm0-7.6c-1.6 0-2.8-1.3-2.8-2.8 0-1.6 1.3-2.8 2.8-2.8 1.6 0 2.8 1.3 2.8 2.8.1 1.5-1.2 2.8-2.8 2.8zm7.7 15.2c-1.6 0-2.8-1.3-2.8-2.8 0-1.6 1.3-2.8 2.8-2.8 1.6 0 2.8 1.3 2.8 2.8 0 1.5-1.3 2.8-2.8 2.8zm0-7.6c-1.6 0-2.8-1.3-2.8-2.8 0-1.6 1.3-2.8 2.8-2.8 1.6 0 2.8 1.3 2.8 2.8 0 1.5-1.3 2.8-2.8 2.8zm0-7.6c-1.6 0-2.8-1.3-2.8-2.8 0-1.6 1.3-2.8 2.8-2.8 1.6 0 2.8 1.3 2.8 2.8 0 1.5-1.3 2.8-2.8 2.8zm7.6 15.2c-1.6 0-2.8-1.3-2.8-2.8 0-1.6 1.3-2.8 2.8-2.8 1.6 0 2.8 1.3 2.8 2.8 0 1.5-1.2 2.8-2.8 2.8zm0-7.6c-1.6 0-2.8-1.3-2.8-2.8 0-1.6 1.3-2.8 2.8-2.8 1.6 0 2.8 1.3 2.8 2.8 0 1.5-1.2 2.8-2.8 2.8zm0-7.6c-1.6 0-2.8-1.3-2.8-2.8 0-1.6 1.3-2.8 2.8-2.8 1.6 0 2.8 1.3 2.8 2.8 0 1.5-1.2 2.8-2.8 2.8z"/><circle class="st1" cx="211.4" cy="181.5" r="5.3"/></g></switch></svg>