<svg xmlns="http://www.w3.org/2000/svg" version="1.1" xmlns:xlink="http://www.w3.org/1999/xlink"
    width="512" height="512" x="0" y="0" viewBox="0 0 511.991 511.991" fill="#FFF"
    style="enable-background:new 0 0 512 512" xml:space="preserve" class=""><g><path d="M261.834 341.333a45.4 45.4 0 0 0 45.227-49.134 75.574 75.574 0 0 0-15.01-40.781 76.55 76.55 0 0 0-51.49-29.013 68.163 68.163 0 0 0 13.269-26.359c15.207-.983 27.206-13.312 27.776-28.54.57-15.229-10.474-28.419-25.565-30.536v-.435c0-37.703-30.564-68.267-68.267-68.267s-68.267 30.564-68.267 68.267v.435c-15.11 2.094-26.179 15.29-25.613 30.534s12.583 27.583 27.806 28.551a68.057 68.057 0 0 0 13.278 26.359 76.612 76.612 0 0 0-51.524 29.013 75.507 75.507 0 0 0-14.976 40.73 45.39 45.39 0 0 0 45.236 49.178h148.12zm-125.261-187.05c16.913.93 51.029.759 67.328-13.824.367-.316.717-.649 1.058-.981a50.66 50.66 0 0 0 34.014 21.939V179.2c0 28.277-22.923 51.2-51.2 51.2s-51.2-22.923-51.2-51.2zm59.733 92.595a67.625 67.625 0 0 0 24.439-7.945h1.161v13.321a8.531 8.531 0 0 1-10.24 8.363l-15.36-3.081zm-42.666-7.945h1.161a67.631 67.631 0 0 0 24.439 7.945v10.658l-15.36 3.081a8.532 8.532 0 0 1-10.24-8.363zm124.97 22.989a58.663 58.663 0 0 1 11.46 31.625 28.075 28.075 0 0 1-25.498 30.439v-33.852a8.533 8.533 0 0 0-17.066 0v34.133h-51.2v-49.323l12.041 2.406a25.6 25.6 0 0 0 30.626-25.097v-12.8a59.526 59.526 0 0 1 39.637 22.469zM264.573 166.4a12.8 12.8 0 0 1-8.533 12.075v-24.149a12.798 12.798 0 0 1 8.533 12.074zm-76.8-81.067c28.265.028 51.172 22.935 51.2 51.2v7.518a38.483 38.483 0 0 1-25.856-26.658 8.534 8.534 0 0 0-16.811 2.073 10.367 10.367 0 0 1-3.78 8.277c-10.035 8.986-37.001 10.573-55.953 9.463v-.674c.028-28.264 22.935-51.17 51.2-51.199zm-76.8 81.067a12.8 12.8 0 0 1 8.533-12.075v24.149a12.798 12.798 0 0 1-8.533-12.074zM85.484 293.547a58.527 58.527 0 0 1 11.435-31.573 59.552 59.552 0 0 1 39.654-22.545v12.8a25.601 25.601 0 0 0 30.626 25.105l12.041-2.389v49.323h-51.2v-34.133a8.533 8.533 0 0 0-17.066 0v33.852a28.067 28.067 0 0 1-25.489-30.464v.024z"  opacity="1" data-original="#000000" class=""></path><g fill-rule="evenodd" clip-rule="evenodd"><path d="M42.706 85.333a8.533 8.533 0 0 0 8.533-8.533V51.2h25.6a8.533 8.533 0 0 0 0-17.066H42.706a8.533 8.533 0 0 0-8.533 8.533V76.8a8.533 8.533 0 0 0 8.533 8.533zM76.84 358.4h-25.6v-25.6a8.533 8.533 0 0 0-17.066 0v34.133a8.533 8.533 0 0 0 8.533 8.533H76.84a8.533 8.533 0 0 0 0-17.066zM298.706 51.2h25.6v25.6c0 4.713 3.82 8.533 8.533 8.533s8.533-3.82 8.533-8.533V42.667a8.533 8.533 0 0 0-8.533-8.533h-34.133a8.533 8.533 0 0 0 0 17.066zM402.736 401.545l-56.849 56.841a8.534 8.534 0 1 0 12.066 12.066l56.849-56.841a8.533 8.533 0 0 0-.104-11.962 8.533 8.533 0 0 0-11.962-.104zM386.378 373.129a8.534 8.534 0 0 0-12.066 0L317.48 429.97a8.534 8.534 0 1 0 12.058 12.058l56.841-56.841a8.536 8.536 0 0 0-.001-12.058zM357.953 344.747a8.534 8.534 0 0 0-12.066 0l-56.841 56.841a8.534 8.534 0 1 0 12.066 12.066l56.841-56.841a8.534 8.534 0 0 0 0-12.066z"  opacity="1" data-original="#000000" class=""></path></g><path d="m497.473 249.967-27.127 27.127-11.767-11.767a28.409 28.409 0 0 0-20.241-8.388h-40.192a28.485 28.485 0 0 0-20.25 8.388l-2.389 2.389V34.133C375.506 15.282 360.224 0 341.373 0h-307.2C15.322 0 .04 15.282.04 34.133v341.333c0 18.851 15.282 34.133 34.133 34.133h213.538a28.433 28.433 0 0 0 8.175 18.227l75.793 75.785c11.185 11.173 29.306 11.173 40.491 0l122.027-122.027a28.417 28.417 0 0 0 8.388-20.241v-40.192c.021-7.599-3-14.891-8.388-20.25l-11.759-11.759 27.119-27.127a8.533 8.533 0 0 0-.104-11.962 8.533 8.533 0 0 0-11.962-.104zm-480.367 125.5V34.133c0-9.426 7.641-17.067 17.067-17.067h307.2c9.426 0 17.067 7.641 17.067 17.067v250.65L255.886 387.337a28.382 28.382 0 0 0-4.028 5.197H34.173c-9.426-.001-17.067-7.642-17.067-17.067zm465.007-62.481a11.499 11.499 0 0 1 3.413 8.183v40.192a11.641 11.641 0 0 1-3.413 8.175L360.146 491.52c-4.518 4.515-11.84 4.515-16.358 0l-75.802-75.759c-4.496-4.526-4.496-11.832 0-16.358L372.946 294.4l.137-.145 16.887-16.887a11.511 11.511 0 0 1 8.192-3.413h40.192a11.473 11.473 0 0 1 8.175 3.413l11.75 11.793-12.245 12.245c-18.013-11.805-42.035-8.072-55.617 8.641s-12.322 40.991 2.917 56.209 39.519 16.443 56.213 2.837 20.392-37.634 8.562-55.629l12.245-12.237zm-41.48 41.19c-9.886 9.411-25.417 9.411-35.302 0-8.638-8.532-9.863-22.051-2.899-31.997s20.086-13.419 31.059-8.22l-16.538 16.529a8.54 8.54 0 0 0 3.827 14.284 8.54 8.54 0 0 0 8.247-2.21l16.512-16.521a24.918 24.918 0 0 1-4.906 28.135z"  opacity="1" data-original="#000000" class=""></path></g></svg>