<?xml version="1.0" encoding="utf-8"?>
<!-- Generator: Adobe Illustrator 29.2.1, SVG Export Plug-In . SVG Version: 9.03 Build 55982)  -->
<!DOCTYPE svg PUBLIC "-//W3C//DTD SVG 1.0//EN" "http://www.w3.org/TR/2001/REC-SVG-20010904/DTD/svg10.dtd" [
    <!ENTITY ns_extend "http://ns.adobe.com/Extensibility/1.0/">
    <!ENTITY ns_ai "http://ns.adobe.com/AdobeIllustrator/10.0/">
    <!ENTITY ns_graphs "http://ns.adobe.com/Graphs/1.0/">
    <!ENTITY ns_vars "http://ns.adobe.com/Variables/1.0/">
    <!ENTITY ns_imrep "http://ns.adobe.com/ImageReplacement/1.0/">
    <!ENTITY ns_sfw "http://ns.adobe.com/SaveForWeb/1.0/">
    <!ENTITY ns_custom "http://ns.adobe.com/GenericCustomNamespace/1.0/">
    <!ENTITY ns_adobe_xpath "http://ns.adobe.com/XPath/1.0/">
]>
<svg version="1.0" id="Calque_1"
    xmlns="http://www.w3.org/2000/svg" xmlns:xlink="http://www.w3.org/1999/xlink" x="0px" y="0px"
    width="424.5px" height="424.5px"
    viewBox="0 0 424.5 424.5" style="enable-background:new 0 0 424.5 424.5;" xml:space="preserve">
<style type="text/css">
        .st0{fill:none;stroke:#C6C6C6;stroke-width:3.6623;stroke-miterlimit:10;} .st1{fill:#DADADA;}
        .st2{fill:#C6C6C6;} </style>


	<g >
		<path class="st0" d="M229.4,33.5c91.1,8.6,162.4,85.4,162.4,178.8c0,99.2-80.4,179.6-179.6,179.6S32.7,311.4,32.7,212.2
			c0-93.3,71.1-170,162.1-178.7"/>
		<circle class="st0" cx="212.3" cy="212.2" r="187"/>
		<path class="st0" d="M272.1,107.9c-14.2,17.9-36.2,26.6-60.8,26.6c-24.3,0-45.9-8.4-60.2-25.8C115.7,129.6,92,168.1,92,212.2
			c0,66.4,53.8,120.3,120.3,120.3s120.3-53.8,120.3-120.3C332.5,167.6,308.2,128.7,272.1,107.9z"/>
		<path class="st0" d="M271.6,99.2c-12.4,16.7-34.3,26.9-59.4,26.9s-47-10.2-59.4-26.9c-40.6,21.4-68.3,64-68.3,113.1
			c0,70.5,57.2,127.7,127.7,127.7S340,282.7,340,212.2C340,163.1,312.3,120.5,271.6,99.2z"/>
		<path class="st0" d="M268.9,89.6c-11.8,17.7-33,28.5-57.3,28.5c-24.1,0-45.1-10.7-57-28.1c-45.8,21.6-77.5,68.2-77.5,122.2
			c0,74.6,60.5,135.1,135.1,135.1s135.1-60.5,135.1-135.1C347.4,157.9,315.2,111,268.9,89.6z"/>
		<path class="st0" d="M265.6,80.1c-10.8,18.2-30.7,30.4-53.4,30.4s-42.6-12.2-53.4-30.4c-52.3,21.1-89.1,72.3-89.1,132.2
			c0,78.7,63.8,142.5,142.5,142.5s142.5-63.8,142.5-142.5C354.8,152.4,317.9,101.2,265.6,80.1z"/>
		<path class="st0" d="M261.9,70.7c-9.2,18.7-28,31.5-49.6,31.5c-21.6,0-40.3-12.8-49.6-31.5C104.3,91.2,62.4,146.8,62.4,212.2
			c0,82.8,67.1,149.9,149.9,149.9S362.2,295,362.2,212.2C362.2,146.8,320.3,91.2,261.9,70.7z"/>
		<path class="st0" d="M256.5,61.2C250.1,80.3,232.6,94,212.1,94c-20.5,0-37.9-13.7-44.3-32.7C102.6,80.5,54.9,140.8,54.9,212.2
			c0,86.9,70.4,157.3,157.3,157.3s157.3-70.4,157.3-157.3C369.6,140.7,321.9,80.3,256.5,61.2z"/>
		<path class="st0" d="M250.2,51.9C247.7,70.6,231.7,85,212.3,85c-19.4,0-35.4-14.4-37.9-33.1C101.6,69,47.5,134.3,47.5,212.2
			c0,91,73.8,164.7,164.7,164.7S377,303.2,377,212.2C377,134.3,322.9,69,250.2,51.9z"/>
		<path class="st0" d="M242,42.6c0,0.7,0.1,1.4,0.1,2.1c0,17.3-13.3,31.3-29.8,31.3c-16.5,0-29.8-14-29.8-31.3c0-0.7,0-1.4,0.1-2.1
			C101.6,56.7,40.1,127.3,40.1,212.2c0,95.1,77.1,172.2,172.2,172.2s172.2-77.1,172.2-172.2C384.4,127.3,322.9,56.7,242,42.6z"/>
		<rect x="207.3" y="67.8" class="st1" width="8.6" height="69.4"/>
		<g>
			<path class="st2" d="M212.4,298.6v33.9c32.5,0,61.9-12.9,83.5-33.9H212.4z"/>
			<path class="st2" d="M209.9,298.6h-81.3c21.1,20.5,49.7,33.2,81.3,33.9V298.6z"/>
		</g>
		<g>
			<path class="st2" d="M185.5,158.5c0-12.2,9.5-22.3,21.8-24.2c-33.4-2.7-62.8-37.5-59.7-3c2.4,26.6,25.6,48.6,57.6,51
				C193.9,179.6,185.5,170,185.5,158.5z"/>
			<path class="st2" d="M215.7,134.3c12.4,1.9,21.8,12,21.8,24.2c0,11.4-8.2,20.9-19.3,23.7c31.4-2.9,53.7-24.7,56.5-50.9
				C278,100.5,249,131.7,215.7,134.3z"/>
			<path class="st1" d="M236.5,158.5c0-13-11.2-23.5-25-23.5c-13.8,0-25,10.6-25,23.5s11.2,23.5,25,23.5
				C225.3,182,236.5,171.5,236.5,158.5z M199.9,174.3c-2.4,0-4.3-1.9-4.3-4.3c0-2.4,1.9-4.3,4.3-4.3c2.4,0,4.3,1.9,4.3,4.3
				C204.2,172.4,202.3,174.3,199.9,174.3z M199.9,162.8c-2.4,0-4.3-1.9-4.3-4.3c0-2.4,1.9-4.3,4.3-4.3c2.4,0,4.3,1.9,4.3,4.3
				C204.2,160.9,202.3,162.8,199.9,162.8z M199.9,151.3c-2.4,0-4.3-1.9-4.3-4.3c0-2.4,1.9-4.3,4.3-4.3c2.4,0,4.3,1.9,4.3,4.3
				C204.2,149.4,202.3,151.3,199.9,151.3z M211.5,174.3c-2.4,0-4.3-1.9-4.3-4.3c0-2.4,1.9-4.3,4.3-4.3s4.3,1.9,4.3,4.3
				C215.8,172.4,213.9,174.3,211.5,174.3z M211.5,162.8c-2.4,0-4.3-1.9-4.3-4.3c0-2.4,1.9-4.3,4.3-4.3s4.3,1.9,4.3,4.3
				C215.8,160.9,213.9,162.8,211.5,162.8z M211.5,151.3c-2.4,0-4.3-1.9-4.3-4.3c0-2.4,1.9-4.3,4.3-4.3s4.3,1.9,4.3,4.3
				C215.8,149.4,213.9,151.3,211.5,151.3z M223.1,174.3c-2.4,0-4.3-1.9-4.3-4.3c0-2.4,1.9-4.3,4.3-4.3c2.4,0,4.3,1.9,4.3,4.3
				C227.4,172.4,225.4,174.3,223.1,174.3z M223.1,162.8c-2.4,0-4.3-1.9-4.3-4.3c0-2.4,1.9-4.3,4.3-4.3c2.4,0,4.3,1.9,4.3,4.3
				C227.4,160.9,225.4,162.8,223.1,162.8z M223.1,151.3c-2.4,0-4.3-1.9-4.3-4.3c0-2.4,1.9-4.3,4.3-4.3c2.4,0,4.3,1.9,4.3,4.3
				C227.4,149.4,225.4,151.3,223.1,151.3z"/>
		</g>
		<path class="st1" d="M212.3,24.4c-12.7,0-23,10.3-23,23s10.3,23,23,23c12.7,0,23-10.3,23-23S225,24.4,212.3,24.4z M200.8,63.2
			c-2.4,0-4.3-1.9-4.3-4.3c0-2.4,1.9-4.3,4.3-4.3c2.4,0,4.3,1.9,4.3,4.3C205.1,61.3,203.2,63.2,200.8,63.2z M200.8,51.8
			c-2.4,0-4.3-1.9-4.3-4.3c0-2.4,1.9-4.3,4.3-4.3c2.4,0,4.3,1.9,4.3,4.3C205.1,49.8,203.2,51.8,200.8,51.8z M200.8,40.3
			c-2.4,0-4.3-1.9-4.3-4.3c0-2.4,1.9-4.3,4.3-4.3c2.4,0,4.3,1.9,4.3,4.3C205.1,38.3,203.2,40.3,200.8,40.3z M212.4,63.2
			c-2.4,0-4.3-1.9-4.3-4.3c0-2.4,1.9-4.3,4.3-4.3s4.3,1.9,4.3,4.3C216.7,61.3,214.8,63.2,212.4,63.2z M212.4,51.8
			c-2.4,0-4.3-1.9-4.3-4.3c0-2.4,1.9-4.3,4.3-4.3s4.3,1.9,4.3,4.3C216.7,49.8,214.8,51.8,212.4,51.8z M212.4,40.3
			c-2.4,0-4.3-1.9-4.3-4.3c0-2.4,1.9-4.3,4.3-4.3s4.3,1.9,4.3,4.3C216.7,38.3,214.8,40.3,212.4,40.3z M224,63.2
			c-2.4,0-4.3-1.9-4.3-4.3c0-2.4,1.9-4.3,4.3-4.3c2.4,0,4.3,1.9,4.3,4.3C228.3,61.3,226.4,63.2,224,63.2z M224,51.8
			c-2.4,0-4.3-1.9-4.3-4.3c0-2.4,1.9-4.3,4.3-4.3c2.4,0,4.3,1.9,4.3,4.3C228.3,49.8,226.4,51.8,224,51.8z M224,40.3
			c-2.4,0-4.3-1.9-4.3-4.3c0-2.4,1.9-4.3,4.3-4.3c2.4,0,4.3,1.9,4.3,4.3C228.3,38.3,226.4,40.3,224,40.3z"/>
		<circle class="st2" cx="211.6" cy="277.5" r="8.1"/>
	</g>


</svg>