<svg baseProfile="tiny" xmlns="http://www.w3.org/2000/svg" viewBox="0 0 425 425"
	overflow="visible" xml:space="preserve"><path fill="none" d="M222.8 153.1c2.3 0 4.2-1.9 4.2-4.2s-1.9-4.2-4.2-4.2c-2.3 0-4.2 1.9-4.2 4.2s1.9 4.2 4.2 4.2z"/><path fill="none" d="M154.1 104.8C114.6 126.2 90 167.3 90 212.3c0 67.4 54.9 122.3 122.3 122.3s122.3-54.9 122.3-122.3c0-45.1-24.5-86.1-64.1-107.6-12 15.3-32.1 24.7-54.6 25.6v4.6c22.3-1 41.1-9.8 53.2-25l1-1.2 1.3.8c36.7 21.1 59.6 60.6 59.6 102.9 0 65.4-53.2 118.6-118.6 118.6S93.7 277.7 93.7 212.3c0-21 5.6-41.6 16.1-59.7 10.2-17.5 24.8-32.2 42.3-42.5l1.3-.8 1 1.2c3.8 4.7 8.3 8.7 13.4 12.1 6.1 2.8 13.4 6.6 21.4 9.5 5.8 1.5 12 2.4 18.4 2.7v-4.6c-22.1-1.1-41.7-10.5-53.5-25.4z"/><path fill="none" d="M222.8 155.9c-2.3 0-4.2 1.9-4.2 4.2s1.9 4.2 4.2 4.2c2.3 0 4.2-1.9 4.2-4.2s-1.9-4.2-4.2-4.2z"/><path fill="none" d="M163.3 77c-56.8 20.6-94.8 74.8-94.8 135.3 0 79.3 64.5 143.9 143.9 143.9s143.9-64.5 143.9-143.9c0-60.5-38-114.7-94.8-135.3-9.3 17.6-26.4 28.8-45.5 30.1v4.5c19.2-1.2 36.9-11.9 46.8-28.6l.8-1.3 1.4.6c25.6 10.4 47.4 27.9 63.1 50.7 16.1 23.4 24.6 50.8 24.6 79.3 0 77.3-62.9 140.2-140.2 140.2S72.1 289.6 72.1 212.3c0-28.5 8.5-55.9 24.6-79.3 15.7-22.8 37.5-40.4 63.1-50.7l1.4-.6.8 1.3c9.7 16.3 26.8 26.9 45.5 28.5V107c-18.6-1.7-35.2-12.8-44.2-30z"/><path fill="none" d="M174 58.7C103.3 76.3 54 139.1 54 212.3c0 87.3 71 158.3 158.3 158.3s158.3-71 158.3-158.3c0-73.2-49.2-136.1-120-153.6-3.2 17.1-17.5 30-34.7 31.6v5.2c17.1-1.5 32-13.4 37.7-30.5l.5-1.6 1.6.5c31.4 9.2 59.7 28.7 79.7 54.9 20.6 27.1 31.5 59.4 31.5 93.5 0 85.3-69.4 154.6-154.6 154.6S57.7 297.6 57.7 212.3c0-34.1 10.9-66.4 31.4-93.4C109 92.7 137.2 73.2 168.6 64l1.6-.5.5 1.6c5.7 16.7 20.1 28.4 36.7 30.3v-5.2c-16.5-2.1-30.3-14.8-33.4-31.5z"/><path fill="none" d="M168 67.9C105 87.1 61.2 146.3 61.2 212.3c0 83.3 67.8 151.1 151.1 151.1s151.1-67.8 151.1-151.1c0-66.1-43.9-125.3-107-144.5-6.6 17.7-22.5 29.8-40.5 31.3v4.5c18.3-1.3 34.5-12.3 43-29.5l.7-1.4 1.5.5c59 20.7 98.7 76.6 98.7 139.2 0 81.3-66.1 147.4-147.4 147.4S64.9 293.6 64.9 212.3c0-62.6 39.7-118.5 98.7-139.2l1.5-.5.7 1.4c8.3 16.8 24 27.7 41.7 29.4V99c-17.6-1.9-33-13.8-39.5-31.1z"/><path fill="none" d="M222.8 167.1c-2.3 0-4.2 1.9-4.2 4.2 0 2.3 1.9 4.2 4.2 4.2 2.3 0 4.2-1.9 4.2-4.2 0-2.3-1.9-4.2-4.2-4.2z"/><path fill="none" d="M159.7 86.1c-51.1 21.3-84.1 70.7-84.1 126.2C75.6 287.7 137 349 212.3 349S349 287.7 349 212.3c0-55.5-33-104.9-84.1-126.2-10.7 17-29.1 27.8-49 29v3.8c21-1.2 39.5-11 50-26.8l.8-1.3 1.4.6c46.9 21.7 77.2 69.1 77.2 120.8 0 73.4-59.7 133-133 133s-133-59.7-133-133c0-25.7 7.3-50.6 21.2-72.1 13.5-20.9 32.6-37.6 55.1-48.2l1.4-.6.9 1.3c10.6 15.5 28.9 25.2 49.7 26.4v-3.9c-19.6-1.6-37.4-12.3-47.9-29z"/><path fill="none" d="M155.8 95.8c-44.3 21.6-72.9 67.1-72.9 116.5 0 71.4 58.1 129.5 129.5 129.5s129.5-58.1 129.5-129.5c0-49.8-28.9-95.5-73.8-116.9-11.3 16.1-30.5 26-52.1 27.1v4.2c22-.9 41.5-10.2 52.7-25.3l.9-1.2 1.3.7c41.5 21.9 67.3 64.5 67.3 111.4 0 69.4-56.4 125.8-125.8 125.8S86.5 281.7 86.5 212.3c0-46.9 25.8-89.6 67.3-111.4l1.3-.7.9 1.2c11 14.8 30 24.1 51.4 25.3v-4.2c-21.3-1.1-40.3-10.9-51.6-26.7z"/><path fill="none" d="M200.3 167.1c-2.3 0-4.2 1.9-4.2 4.2 0 2.3 1.9 4.2 4.2 4.2s4.2-1.9 4.2-4.2c0-2.3-1.9-4.2-4.2-4.2zM200.3 155.9c-2.3 0-4.2 1.9-4.2 4.2s1.9 4.2 4.2 4.2 4.2-1.9 4.2-4.2-1.9-4.2-4.2-4.2z"/><path fill="none" d="M152.5 114c-34.2 20.8-55.3 58.3-55.3 98.3 0 33.1 14 62.9 36.4 83.9H210v31.1h2.5v-31.1H291c22.4-21 36.4-50.9 36.4-83.9 0-40.6-21.6-78.4-56.5-99.1-2.4 2.9-5.1 5.5-7.9 7.9 7.3-1.9 11.3.3 9.9 12.5-2.8 25.5-24.4 46.7-54.9 49.5 10.8-2.7 18.8-12 18.8-23 0-10-6.5-18.5-15.8-22.1-.8.1-1.6.1-2.4.2 9.9 2.9 17.2 11.6 17.2 21.9 0 12.6-10.9 22.9-24.3 22.9s-24.3-10.3-24.3-22.9c0-10.3 7.2-19 17.1-21.9-.8-.1-1.6-.1-2.4-.2-9.2 3.6-15.7 12.1-15.7 22 0 11.2 8.2 20.5 19.2 23.1-31.1-2.4-53.7-23.7-56-49.6-1.1-12.3 2-15.5 8-14.6-1.7-1.4-3.3-3.1-4.9-4.9zm59.2 153.8c4.3 0 7.8 3.5 7.8 7.8s-3.5 7.8-7.8 7.8-7.8-3.5-7.8-7.8c-.1-4.2 3.4-7.8 7.8-7.8z"/><path fill="none" d="M200.3 144.8c-2.3 0-4.2 1.9-4.2 4.2s1.9 4.2 4.2 4.2 4.2-1.9 4.2-4.2-1.9-4.2-4.2-4.2zM211.6 155.9c-2.3 0-4.2 1.9-4.2 4.2s1.9 4.2 4.2 4.2 4.2-1.9 4.2-4.2-1.9-4.2-4.2-4.2zM211.6 144.8c-2.3 0-4.2 1.9-4.2 4.2s1.9 4.2 4.2 4.2 4.2-1.9 4.2-4.2-1.9-4.2-4.2-4.2zM211.6 167.1c-2.3 0-4.2 1.9-4.2 4.2 0 2.3 1.9 4.2 4.2 4.2s4.2-1.9 4.2-4.2c-.1-2.3-1.9-4.2-4.2-4.2zM201.2 45.2c2.3 0 4.2-1.9 4.2-4.2s-1.9-4.2-4.2-4.2c-2.3 0-4.2 1.9-4.2 4.2s1.9 4.2 4.2 4.2zM212.5 36.9c-2.3 0-4.2 1.9-4.2 4.2s1.9 4.2 4.2 4.2c2.3 0 4.2-1.9 4.2-4.2s-1.9-4.2-4.2-4.2zM212.5 48.1c-2.3 0-4.2 1.9-4.2 4.2 0 2.3 1.9 4.2 4.2 4.2 2.3 0 4.2-1.9 4.2-4.2-.1-2.4-1.9-4.2-4.2-4.2zM223.7 48.1c-2.3 0-4.2 1.9-4.2 4.2 0 2.3 1.9 4.2 4.2 4.2s4.2-1.9 4.2-4.2c0-2.4-1.9-4.2-4.2-4.2zM212.5 59.2c-2.3 0-4.2 1.9-4.2 4.2 0 2.3 1.9 4.2 4.2 4.2 2.3 0 4.2-1.9 4.2-4.2-.1-2.3-1.9-4.2-4.2-4.2zM201.2 67.6c2.3 0 4.2-1.9 4.2-4.2 0-2.3-1.9-4.2-4.2-4.2-2.3 0-4.2 1.9-4.2 4.2 0 2.3 1.9 4.2 4.2 4.2z"/><path fill="none" d="M223.3 32.8c2.2 1.2 4.1 2.8 5.7 4.7l.1-.6c43.4 4.1 83.7 24.2 113.2 56.5 29.8 32.5 46.2 74.8 46.2 118.9 0 97.2-79.1 176.2-176.2 176.2s-176.2-79-176.2-176.2c0-44.1 16.4-86.3 46.1-118.8 29.5-32.3 69.7-52.4 113-56.6l.1.9c1.7-2 3.7-3.7 6-5-94.1 5.7-168.9 84.1-168.9 179.5 0 99.2 80.7 179.9 179.9 179.9s179.9-80.7 179.9-179.9c0-95.5-74.8-173.8-168.9-179.5z"/><path fill="none" d="M201.2 56.4c2.3 0 4.2-1.9 4.2-4.2 0-2.3-1.9-4.2-4.2-4.2-2.3 0-4.2 1.9-4.2 4.2 0 2.3 1.9 4.2 4.2 4.2zM219.6 41.1c0 2.3 1.9 4.2 4.2 4.2s4.2-1.9 4.2-4.2-1.9-4.2-4.2-4.2-4.2 1.9-4.2 4.2zM223.7 59.2c-2.3 0-4.2 1.9-4.2 4.2 0 2.3 1.9 4.2 4.2 4.2s4.2-1.9 4.2-4.2c0-2.3-1.9-4.2-4.2-4.2z"/><path fill="none" d="M39.6 212.3c0 95.2 77.5 172.7 172.7 172.7S385 307.5 385 212.3c0-88.7-65.8-162-153.5-171.6 2 3.4 3.2 7.3 3.2 11.5 0 11.1-8.1 20.4-18.8 22.1v3.6c13.3-1.8 23.6-13.8 23.6-28.3 0-.6 0-1.3-.1-1.9l-.1-2.3 2.2.4c38.7 6.7 74.1 27 99.7 57.2 25.9 30.5 40.1 69.3 40.1 109.3 0 93.2-75.8 169-169 169s-169-75.8-169-169c0-40 14.3-78.9 40.1-109.3 25.6-30.1 61-50.4 99.7-57.2l2.2-.4-.1 2.3c0 .6-.1 1.3-.1 1.9 0 14 9.7 25.7 22.3 28.1v-3.6c-10-2.2-17.5-11.1-17.5-21.8 0-4.2 1.2-8.2 3.2-11.5-87.6 9.5-153.5 82.9-153.5 171.5z"/><path fill="none" d="M181.6 49.7C103.4 64.4 46.8 132.4 46.8 212.3c0 91.2 74.2 165.5 165.5 165.5s165.5-74.2 165.5-165.5c0-79.9-56.5-148-134.7-162.6-.1 16.4-11.9 30-27.2 31.8v5.2c16.1-1.6 29.3-14.2 31.5-30.4l.3-1.9 1.9.4c34.9 8.2 66.5 28.2 89.1 56.4 23.2 29 35.5 64 35.5 101.2 0 89.2-72.6 161.8-161.8 161.8S50.5 301.6 50.5 212.3c0-37.2 12.3-72.2 35.5-101.2C108.5 83 140.2 63 175.1 54.8l1.9-.4.3 1.9c2.1 15.8 14.7 28.1 30.2 30.3v-5.3c-14.6-2.4-25.9-15.7-25.9-31.6z"/><path fill="#C6C6C5" d="M212.5 327.4c30.3 0 57.9-11.9 78.5-31.1h-78.5v31.1zM133.7 296.2c20.1 18.8 46.8 30.5 76.3 31.1v-31.1h-76.3z"/><path fill="#C6C6C5" d="M385 212.3c0 95.2-77.5 172.7-172.7 172.7S39.6 307.5 39.6 212.3c0-88.6 65.8-162 153.5-171.6.6-1 1.3-2 2.1-2.9l-.1-.9c-43.4 4.2-83.5 24.3-113 56.6-29.7 32.5-46 74.7-46 118.8 0 97.2 79.1 176.2 176.2 176.2s176.2-79.1 176.2-176.2c0-44.1-16.4-86.4-46.2-118.9-29.5-32.3-69.7-52.4-113.2-56.5l-.1.6c.9 1 1.7 2.1 2.4 3.2C319.2 50.3 385 123.6 385 212.3z"/><path fill="#C6C6C5" d="M212.3 28.9c-101.2 0-183.4 82.3-183.4 183.4s82.3 183.4 183.4 183.4 183.4-82.3 183.4-183.4S313.5 28.9 212.3 28.9zm0 363.3c-99.2 0-179.9-80.7-179.9-179.9 0-95.5 74.8-173.8 168.9-179.5 3.3-1.9 7-2.9 11-2.9s7.8 1.1 11 2.9c94.1 5.7 168.9 84.1 168.9 179.5 0 99.2-80.7 179.9-179.9 179.9z"/><path fill="#C6C6C5" d="M207.5 136.6v-1.7c-6.5-.3-12.6-1.2-18.4-2.7 5.8 2.1 12 3.9 18.4 4.4z"/><path fill="#C6C6C5" d="M270.9 113.2c34.9 20.7 56.5 58.5 56.5 99.1 0 33.1-14 62.9-36.4 83.9-20.6 19.3-48.2 31.1-78.5 31.1H210c-29.5-.6-56.3-12.3-76.3-31.1-22.4-21-36.4-50.9-36.4-83.9 0-40 21.2-77.5 55.3-98.3 1.5 1.8 3.2 3.5 4.9 5.1 2.8.4 6.3 1.8 10.2 3.6-5.1-3.4-9.6-7.4-13.4-12.1l-1-1.2-1.3.8c-17.4 10.3-32.1 25-42.3 42.5-10.5 18-16.1 38.7-16.1 59.7 0 65.4 53.2 118.6 118.6 118.6s118.6-53.2 118.6-118.6c0-42.3-22.8-81.8-59.6-102.9l-1.3-.8-1 1.2c-12.1 15.2-30.9 24-53.2 25v1.7c19-1.6 36.6-12.7 47.1-15.4 3-2.4 5.7-5.1 8.1-8z"/><path fill="#C6C6C5" d="M221.1 138.1c-1.7-.6-3.4-1.1-5.2-1.4v1c1 .2 1.9.4 2.8.6.8-.1 1.6-.2 2.4-.2zM204.4 138.3c1-.3 2-.5 3.1-.7v-1c-1.9.3-3.7.8-5.5 1.5.8 0 1.6.1 2.4.2z"/><path fill="#C6C6C5" d="m156.1 101.4-.9-1.2-1.3.7c-41.5 21.9-67.3 64.5-67.3 111.4 0 69.4 56.4 125.8 125.8 125.8s125.8-56.4 125.8-125.8c0-46.9-25.8-89.6-67.3-111.4l-1.3-.7-.9 1.2c-11.2 15.1-30.7 24.4-52.7 25.3v3.6c22.5-.9 42.6-10.3 54.6-25.6 39.6 21.4 64.1 62.5 64.1 107.6 0 67.4-54.9 122.3-122.3 122.3S90 279.7 90 212.3c0-45.1 24.5-86.1 64.1-107.6 11.8 15 31.3 24.3 53.3 25.5v-3.6c-21.4-1.1-40.4-10.4-51.3-25.2z"/><path fill="#C6C6C5" d="m157.8 92.6-.9-1.3-1.4.6c-22.5 10.6-41.5 27.3-55.1 48.2-13.9 21.5-21.2 46.4-21.2 72.1 0 73.4 59.7 133 133 133s133-59.7 133-133c0-51.7-30.3-99.1-77.2-120.8l-1.4-.6-.8 1.3c-10.5 15.8-29 25.6-50 26.8v3.6c21.6-1.1 40.8-11.1 52.1-27.1 44.9 21.4 73.8 67.1 73.8 116.9 0 71.4-58.1 129.5-129.5 129.5S82.8 283.7 82.8 212.3c0-49.4 28.6-94.9 72.9-116.5 11.3 15.8 30.4 25.5 51.7 26.7v-3.6c-20.7-1.1-39-10.8-49.6-26.3z"/><path fill="#C6C6C5" d="m162 83-.8-1.3-1.4.6c-25.6 10.4-47.4 27.9-63.1 50.7-16.1 23.4-24.6 50.8-24.6 79.3 0 77.3 62.9 140.2 140.2 140.2s140.2-62.9 140.2-140.2c0-28.5-8.5-55.9-24.6-79.3-15.7-22.8-37.5-40.4-63.1-50.7l-1.4-.6-.8 1.3c-9.9 16.7-27.6 27.4-46.8 28.6v3.6c19.9-1.2 38.4-12 49-29C316 107.4 349 156.8 349 212.3c0 75.4-61.3 136.7-136.7 136.7S75.6 287.7 75.6 212.3c0-55.5 33-104.9 84.1-126.2 10.4 16.6 28.3 27.4 47.8 28.9v-3.6c-18.7-1.5-35.8-12.1-45.5-28.4z"/><path fill="#C6C6C5" d="m165.7 74-.7-1.4-1.5.5c-59 20.7-98.7 76.6-98.7 139.2 0 81.3 66.1 147.4 147.4 147.4s147.4-66.1 147.4-147.4c0-62.6-39.7-118.5-98.7-139.2l-1.5-.5-.7 1.4c-8.5 17.2-24.7 28.2-43 29.5v3.6c19.1-1.2 36.2-12.5 45.5-30.1C318 97.6 356 151.8 356 212.3c0 79.3-64.5 143.9-143.9 143.9S68.4 291.6 68.4 212.3c0-60.5 38-114.7 94.8-135.3 9.1 17.2 25.6 28.3 44.2 29.9v-3.6c-17.7-1.6-33.4-12.5-41.7-29.3z"/><path fill="#C6C6C5" d="m170.8 65.1-.5-1.6-1.6.5c-31.4 9.2-59.6 28.7-79.5 54.9-20.6 27.1-31.4 59.4-31.4 93.4C57.7 297.6 127 367 212.3 367S367 297.6 367 212.3c0-34.1-10.9-66.5-31.5-93.5-19.9-26.2-48.2-45.7-79.7-54.9l-1.6-.5-.5 1.6C247.9 82.1 233 94 216 95.5v3.6c18.1-1.5 33.9-13.6 40.5-31.3 63.1 19.2 107 78.4 107 144.5 0 83.3-67.8 151.1-151.1 151.1S61.2 295.6 61.2 212.3c0-66 43.8-125.2 106.8-144.5 6.5 17.3 21.9 29.3 39.5 31.1v-3.6c-16.6-1.8-31.1-13.5-36.7-30.2z"/><path fill="#C6C6C5" d="m177.2 56.3-.3-1.9-1.9.4C140.2 63 108.5 83 86 111.2c-23.2 29-35.5 64-35.5 101.2 0 89.2 72.6 161.8 161.8 161.8s161.8-72.6 161.8-161.8c0-37.2-12.3-72.2-35.5-101.2-22.5-28.2-54.1-48.2-89-56.4l-1.9-.4-.3 1.9c-2.2 16.3-15.4 28.8-31.5 30.4v3.6c17.2-1.6 31.5-14.5 34.7-31.6 70.7 17.5 120 80.4 120 153.6 0 87.3-71 158.3-158.3 158.3S54 299.6 54 212.3c0-73.2 49.2-136.1 120-153.6 3.1 16.6 16.8 29.4 33.5 31.4v-3.6c-15.5-2.1-28.1-14.4-30.3-30.2z"/><path fill="#C6C6C5" d="M243.1 49.7c78.2 14.7 134.7 82.7 134.7 162.6 0 91.2-74.2 165.5-165.5 165.5S46.8 303.6 46.8 212.3c0-79.9 56.5-148 134.7-162.6.1 15.9 11.3 29.2 25.9 31.6v-3.6c-12.7-2.4-22.3-14.1-22.3-28.1 0-.6 0-1.3.1-1.9l.1-2.3-2.2.4c-38.7 6.7-74.1 27-99.7 57.2-25.9 30.5-40.1 69.3-40.1 109.3 0 93.2 75.8 169 169 169s169-75.8 169-169c0-40-14.3-78.9-40.1-109.3-25.6-30.1-61-50.4-99.7-57.2l-2.2-.4.1 2.3c0 .6.1 1.3.1 1.9 0 14.5-10.3 26.5-23.6 28.3v3.6c15.2-1.9 27.1-15.4 27.2-31.8z"/><path fill="#D9D9D9" d="M207.5 81.3V137.7c1.3-.2 2.7-.3 4.1-.3 1.5 0 2.9.1 4.3.4v-1c-.1 0-.2 0-.3-.1h.3V74.2c-1.2.2-2.3.3-3.6.3-1.7 0-3.3-.2-4.8-.5V81.3z"/><path fill="#C6C6C5" d="M167.7 122.7c-4-1.8-7.4-3.2-10.2-3.6-6-.9-9.1 2.3-8 14.6 2.3 25.8 24.8 47.2 56 49.6-11-2.6-19.2-12-19.2-23.1 0-9.9 6.5-18.5 15.7-22 1.7-.7 3.6-1.2 5.5-1.5-6.4-.5-12.6-2.2-18.4-4.4-8-3.1-15.3-6.9-21.4-9.6zM236.8 160.1c0 11-8 20.3-18.8 23 30.5-2.8 52.1-24 54.9-49.5 1.3-12.3-2.6-14.4-9.9-12.5-10.5 2.7-28.1 13.8-47.1 15.4h-.3c.1 0 .2 0 .3.1 1.8.3 3.5.8 5.2 1.4 9.2 3.6 15.7 12.1 15.7 22.1z"/><path fill="#D9D9D9" d="M187.3 160.1c0 12.6 10.9 22.9 24.3 22.9s24.3-10.3 24.3-22.9c0-10.3-7.2-19-17.2-21.9-.9-.3-1.9-.5-2.8-.6-1.4-.2-2.8-.4-4.3-.4-1.4 0-2.8.1-4.1.3-1.1.2-2.1.4-3.1.7-9.9 2.9-17.1 11.7-17.1 21.9zm13 15.3c-2.3 0-4.2-1.9-4.2-4.2 0-2.3 1.9-4.2 4.2-4.2s4.2 1.9 4.2 4.2c0 2.4-1.9 4.2-4.2 4.2zm0-11.1c-2.3 0-4.2-1.9-4.2-4.2s1.9-4.2 4.2-4.2 4.2 1.9 4.2 4.2-1.9 4.2-4.2 4.2zm0-11.2c-2.3 0-4.2-1.9-4.2-4.2s1.9-4.2 4.2-4.2 4.2 1.9 4.2 4.2-1.9 4.2-4.2 4.2zm11.3 22.3c-2.3 0-4.2-1.9-4.2-4.2 0-2.3 1.9-4.2 4.2-4.2s4.2 1.9 4.2 4.2c-.1 2.4-1.9 4.2-4.2 4.2zm0-11.1c-2.3 0-4.2-1.9-4.2-4.2s1.9-4.2 4.2-4.2 4.2 1.9 4.2 4.2-1.9 4.2-4.2 4.2zm0-11.2c-2.3 0-4.2-1.9-4.2-4.2s1.9-4.2 4.2-4.2 4.2 1.9 4.2 4.2-1.9 4.2-4.2 4.2zm11.2 22.3c-2.3 0-4.2-1.9-4.2-4.2 0-2.3 1.9-4.2 4.2-4.2 2.3 0 4.2 1.9 4.2 4.2 0 2.4-1.9 4.2-4.2 4.2zm0-11.1c-2.3 0-4.2-1.9-4.2-4.2s1.9-4.2 4.2-4.2c2.3 0 4.2 1.9 4.2 4.2s-1.9 4.2-4.2 4.2zm0-19.5c2.3 0 4.2 1.9 4.2 4.2s-1.9 4.2-4.2 4.2c-2.3 0-4.2-1.9-4.2-4.2s1.9-4.2 4.2-4.2zM195.3 37.8c-.8.9-1.5 1.9-2.1 2.9-2 3.4-3.2 7.3-3.2 11.5 0 10.7 7.5 19.6 17.5 21.8 1.6.3 3.2.5 4.8.5 1.2 0 2.4-.1 3.6-.3 10.7-1.7 18.8-10.9 18.8-22.1 0-4.2-1.2-8.2-3.2-11.5-.7-1.2-1.5-2.2-2.4-3.2-1.6-1.9-3.6-3.4-5.7-4.7-3.3-1.9-7-2.9-11-2.9s-7.8 1.1-11 2.9c-2.4 1.4-4.4 3.1-6.1 5.1zm17.2 29.8c-2.3 0-4.2-1.9-4.2-4.2 0-2.3 1.9-4.2 4.2-4.2 2.3 0 4.2 1.9 4.2 4.2-.1 2.3-1.9 4.2-4.2 4.2zm0-11.2c-2.3 0-4.2-1.9-4.2-4.2 0-2.3 1.9-4.2 4.2-4.2 2.3 0 4.2 1.9 4.2 4.2-.1 2.3-1.9 4.2-4.2 4.2zm0-11.2c-2.3 0-4.2-1.9-4.2-4.2s1.9-4.2 4.2-4.2c2.3 0 4.2 1.9 4.2 4.2s-1.9 4.2-4.2 4.2zm11.2 22.4c-2.3 0-4.2-1.9-4.2-4.2 0-2.3 1.9-4.2 4.2-4.2s4.2 1.9 4.2 4.2c0 2.3-1.9 4.2-4.2 4.2zm0-11.2c-2.3 0-4.2-1.9-4.2-4.2 0-2.3 1.9-4.2 4.2-4.2s4.2 1.9 4.2 4.2c0 2.3-1.9 4.2-4.2 4.2zm4.2-15.3c0 2.3-1.9 4.2-4.2 4.2s-4.2-1.9-4.2-4.2 1.9-4.2 4.2-4.2 4.2 1.9 4.2 4.2zm-26.7-4.2c2.3 0 4.2 1.9 4.2 4.2s-1.9 4.2-4.2 4.2c-2.3 0-4.2-1.9-4.2-4.2s1.9-4.2 4.2-4.2zm0 11.2c2.3 0 4.2 1.9 4.2 4.2 0 2.3-1.9 4.2-4.2 4.2-2.3 0-4.2-1.9-4.2-4.2 0-2.4 1.9-4.2 4.2-4.2zm0 11.1c2.3 0 4.2 1.9 4.2 4.2 0 2.3-1.9 4.2-4.2 4.2-2.3 0-4.2-1.9-4.2-4.2 0-2.3 1.9-4.2 4.2-4.2z"/><circle transform="rotate(-45.001 211.673 275.688)" fill="#C6C6C5" cx="211.7" cy="275.7" r="7.8"/></svg>