<svg data-name="Calque 1" width="380.284" height="380.284" fill="#FFFFFF"
   xmlns="http://www.w3.org/2000/svg">
   <path
      d="M185.832 86.707c-4.08 0-21.76 9.25-29.27 16.97-19.97-10.32-41.329-7.95-42.269-7.83l-2.16.25-.942 1.96c-.49 1.03-9.1 19.33-5.02 37.43-9.04 5.57-18.29 15.51-18.32 27.6-.01.4-.028 1.07-.048 1.94l-68.57.93a3.955 3.955 0 0 0-3.9 4.01c.03 2.17 1.79 3.9 3.95 3.9h.05l68.42-.93c.03 3.61.14 7.88.4 12.4l-74.12 2.66a3.954 3.954 0 0 0-3.81 4.09 3.957 3.957 0 0 0 3.95 3.81h.14l74.45-2.67c.41 4.18.98 8.33 1.76 12.13l-81.68 4.69a3.954 3.954 0 0 0 .22 7.9h.23l83.37-4.78c.43 1.17.9 2.25 1.41 3.23a332.18 332.18 0 0 0-3.03 8.87l-87.4 6.83a3.948 3.948 0 0 0-3.63 4.25 3.956 3.956 0 0 0 3.94 3.65c.1 0 .21 0 .31-.01l84.32-6.59c-.53 1.86-1.03 3.71-1.48 5.52-.06.23.11.43.35.45 8.78.73 14.02 1.59 17.8 2.66 2.79.79 5.2 2.51 6.78 4.86 4.84 7.21 9.65 13.22 16.32 18.52 23.29 18.48 44.34 26.31 56.92 28.11l.58.06.58-.06c12.58-1.8 33.64-9.63 56.92-28.11 6.67-5.29 11.47-11.3 16.32-18.52 1.58-2.35 3.99-4.07 6.78-4.86 3.78-1.06 9.02-1.93 17.8-2.66.24-.02.41-.22.35-.45-1.5-6.02-3.45-12.35-5.64-18.72l23.7-1.62c.64-.04 1.3.06 1.9.3l9.79 3.85a9.77 9.77 0 0 0 3.24 5.8 9.734 9.734 0 0 0 6.45 2.42c.23 0 .46 0 .68-.02 4.01-.27 7.29-2.93 8.58-6.48l14.26-.97a3.944 3.944 0 0 0 3.67-4.21c-.15-2.18-2.042-3.83-4.212-3.67l-14.26.97c-1.76-3.35-5.378-5.54-9.378-5.25a9.81 9.81 0 0 0-7.03 3.72l-8.9-3.5a12.46 12.46 0 0 0-5.34-.83l-22.79 1.56c.83-2.43 1.55-5.3 2.15-8.62.19.03.39.06.59.06h.2l50.89-2.54a3.951 3.951 0 0 0 3.75-4.15c-.11-2.18-1.95-3.84-4.15-3.75l-50.16 2.51c.29-2.64.54-5.49.73-8.54l93.13-2.88c2.18-.07 3.9-1.89 3.83-4.07-.07-2.18-1.86-3.87-4.07-3.83l.03-.04-92.5 2.86c.1-3.19.14-6.12.15-8.58l24.73-.23c1.81-.02 3.63-.45 5.26-1.24l8.6-4.18c.11.11.21.23.32.34a9.739 9.739 0 0 0 6.88 2.81h.1a9.736 9.736 0 0 0 6.93-2.95c.87-.89 1.54-1.91 2.02-3.02l18.19-.17a3.96 3.96 0 0 0 3.92-3.99 3.959 3.959 0 0 0-3.95-3.92h-.04l-18.19.17c-1.55-3.42-4.98-5.8-8.96-5.8h-.09a9.736 9.736 0 0 0-6.93 2.95 9.777 9.777 0 0 0-2.78 6.03l-9.47 4.6c-.58.28-1.23.43-1.88.44l-24.75.23c-.19-11.94-9.34-21.76-18.31-27.28 4.08-18.1-4.53-36.4-5.02-37.43l-.94-1.96-2.16-.25c-.95-.11-22.3-2.48-42.27 7.83-7.52-7.72-25.19-16.97-29.27-16.97zm-.01 7.99c4.06 1.02 21.63 10.78 24.95 16.15l2.03 3.28 3.33-1.96c14.96-8.78 32.07-8.88 38.08-8.59 2.75 6.92 10.21 29.74-4.08 44.45l5.67 5.51c3.12-3.22 5.41-6.7 7.07-10.28 6.47 4.43 13.02 11.72 13.02 19.93v.12c0 .1.321 10.41-.349 21.96-.51 8.81-1.38 15.03-2.33 19.41-4.39-11.15-9.02-21.6-12.7-29.68-7.94-17.43-22.23-30.64-38.49-41.5-2.72-1.81-5.26-3.55-7.62-5.46-.1-.08-.05-.12.12-.12.93 0 5.65 1.13 12.16 3 .23.07.47.1.73.1.88 0 1.84-.37 2.38-.96 4.58-5 9.738-6.99 13.328-6.99 1.27 0 2.35.25 3.13.7 2.568 1.483 2.027 6.31 1.638 7.077.068-.089 1.997-3.57 2.382-9.198.22-4.46-1.95-6.179-1.42-11.289-3.16.52-13.099-.69-30.109 10.25-.26.17-.69.28-1.03.28h-.16c-5.55-.72-22.35-7.88-31.33-10.51h-.79c-8.97 2.63-25.78 9.79-31.33 10.51h-.16c-.34 0-.77-.12-1.03-.28-17.01-10.94-26.95-9.73-30.11-10.25.53 5.11-1.64 6.83-1.42 11.29.396 5.637 2.315 9.109 2.384 9.197-.38-.767-.93-5.594 1.636-7.076.79-.45 1.86-.702 3.13-.702 3.6 0 8.75 2 13.33 6.99.54.59 1.5.962 2.38.962.25 0 .5-.03.73-.1 6.51-1.87 11.23-3 12.16-3 .17 0 .21.04.12.12-2.36 1.91-4.9 3.648-7.62 5.458-16.26 10.86-30.55 24.07-38.49 41.5-3.69 8.1-8.33 18.592-12.73 29.762-2.5-11.63-3.07-29.831-2.71-41.451h.04v-.12c0-8.21 6.56-15.5 13.02-19.93 1.66 3.59 3.95 7.07 7.07 10.28l5.67-5.51c-14.24-14.67-6.8-37.54-4.07-44.46 6-.3 23.06-.22 38.08 8.6l3.33 1.96 2.03-3.28c3.32-5.37 20.89-15.12 24.95-16.15zm-62.056 36.147.005.023c.02.03.022.04.022.04zm124.123 0-.028.062s.002-.009.022-.039c.002-.003.004-.02.006-.023zm-62.047-8.662c.385 0 .77.074 1.13.224 2.79 1.16 6.74 2.71 10.98 4.07.63.2 2.88 1.27 3.44 1.5 6.64 2.79 10.49 7.53 10.33 7.66-.61.47-4.84-1.68-5.81-2.06-.12-.05-.23-.079-.35-.119l-18.96-5.15c-.51-.14-1.06-.14-1.57 0l-18.92 5.15c-.12.03-.24.07-.35.12-.968.378-5.18 2.514-5.8 2.06-.16-.12 3.701-4.87 10.331-7.66.56-.24 2.81-1.3 3.44-1.5 4.24-1.36 8.19-2.9 10.98-4.07.36-.15.744-.225 1.13-.225zm-.46 11.035c.3-.12.62-.12.92 0 2.81 1.1 7.05 1.98 11.64 3.45.63.2 5.67 1.23 7.11 2.8 5.35 5.83 10.28 8.18 10.55 9.34.16.69-11.06-4.47-11.19-4.51h.02l-18.58-5.63-18.58 5.63c-.12.03-11.35 5.19-11.19 4.51.27-1.16 5.21-3.5 10.55-9.34 1.44-1.57 6.47-2.59 7.11-2.8 4.59-1.47 8.83-2.35 11.64-3.45zm-30.27 6.03c-3.1 5.1-8.86 15.76-8.1 21.16.44 1.44 3.37 2.28 8.21 3.71 2.56.76 5.59 1.27 9.2 3.57 7.36 4.69 7.15 9.41 7.67 12.3.19 1.06.23 2.14.1 3.22l-1.01 8.48c-.04.39-.1.78-.19 1.16l-1.949 13.19c-.13.73-.442 5.42-.352 6.16l.65 2.12c.56 3.9 4.89-.13 4.92-.14 2.8-1.37 5.83.14 5.83.14s2.782 2.03 5.712 2.03h.058c2.93 0 5.711-2.03 5.711-2.03s3.03-1.51 5.83-.14c.03.01 4.36 4.04 4.92.14l.65-2.12c.09-.74-.22-5.42-.35-6.16l-1.95-13.19c-.08-.39-.14-.77-.19-1.16l-1.01-8.49c-.13-1.06-.09-2.14.1-3.21.52-2.88.31-7.61 7.67-12.3 3.61-2.3 6.64-2.81 9.2-3.57 4.85-1.43 7.78-2.27 8.21-3.71.75-5.4-5.01-16.06-8.1-21.16.35.24.71.48 1.05.71 17.7 11.82 29.38 24.33 35.71 38.24 9.97 21.9 17 39.78 21.35 54.34-4.2.55-7.55 1.2-10.4 2h.04c-4.6 1.29-8.57 4.15-11.19 8.04-5.2 7.75-9.46 12.6-14.69 16.75-26.14 20.74-46.24 25.4-52.57 26.39-6.34-1-26.43-5.66-52.57-26.39-5.23-4.15-9.48-9-14.69-16.75-2.61-3.89-6.58-6.75-11.19-8.04-2.85-.8-6.2-1.45-10.4-2 4.35-14.56 11.38-32.45 21.35-54.34 6.33-13.91 18.02-26.42 35.71-38.24.35-.23.7-.47 1.05-.71zm30.62 4.1h.13l-.065.028-.065-.027zm.065.032 15.063 5.728c2.91 1.19 5.192 2.12 6.932 4.54 0 0 1.23 1.98 1.69 3.26.46 1.28.59 1.76.43 2.17-.16.41-.79-.08-2.87-1.52-2.07-1.62-6.232-3-8.672-4.05h-.01c-2.14-.92-6.969-3.23-10.709-3.84-.68-.11-1.24.48-1 1.07l.46 1.89c.12.28.25.56.39.83l.11.2c1 1.84 2.23 3.67 1.86 5.69l-3.04 11.75s-.239.6-.639.6-.64-.6-.64-.6l-3.042-11.75c-.38-2.02.852-3.86 1.862-5.69l.11-.2c.15-.27.28-.55.39-.83l.46-1.89c.24-.59-.32-1.18-1-1.07-3.74.61-8.57 2.92-10.71 3.84-2.44 1.05-6.6 2.42-8.67 4.05-2.08 1.43-2.72 1.93-2.87 1.52-.15-.41-.03-.89.43-2.17.46-1.28 1.69-3.26 1.69-3.26 1.73-2.42 4.02-3.35 6.93-4.54l15.064-5.728zM140.7 153.717c-.34-.22-6.78 8.25-6.78 8.25s-2.53 4.91-2.72 8.25c-.4 6.92 1.74 18.08 2.64 19.82 1.1 2.13 8.712 15.64 8.712 15.64s.6.54.83.07c.21-.42 1.67-3.18 3.09-4.34 2.09-1.72 8.5-5.5 10.32-6.33 1.82-.83 2.77-4.24 3.43-3.84.65.4-1.08 4.92-1.08 4.92s-1.82 4.65-3.63 7.08c-.67.89-4.07 9.09-4.32 9.79-.39 1.12-.9 3.05-1.34 5.02-.45 2 .03 4.1 1.36 5.7 4.65 5.66 11.99 9.07 14.63 10.22.2.09-.15.45-.37.44-3.9-.24-16.33-1.65-16.27-1.43.08.25 6.09 6.63 7.95 9.3 1.86 2.67 9.72 3.82 12.58 3.12l-.01.04c1.28-.32 7.16-2.72 8.95-4.47 2.62-2.58 3.91-3.94 4.29-6 .65-3.54.03-4.57-.88-5.93-.98-1.46-2.26-2.87-3.66-3.59-.95-.49-3.12-.93-4.4-1.15-.69-.12-3.45-.19-5.77-2.7l-.61-.77a7.891 7.891 0 0 1-1.73-5.34l.58-12.19v-13.13c0-1.04-.24-2.06-.7-3l-.592-1.2c-.59-1.2-1.428-2.29-2.558-3.07-.68-.47-1.41-.83-2.08-.81l-3.692.32c-1.71.15-3.44-.08-5-.77-.81-.36-1.25-.69-1.25-.69-1.97-1.07-3.02-2.78-3.92-4.76l-1.988-4.4c-.22-.42-.482-.82-.762-1.21l-3.148-4.24c-1.19-1.97-1.6-3.96-1.31-6.22zm90.32.05 1.211 6.4c.29 2.25-.11 4.25-1.31 6.22l-3.15 4.24c-.29.38-.54.79-.76 1.21l-1.99 4.4c-.9 1.98-1.95 3.69-3.92 4.76 0 0-.44.32-1.25.69-1.55.69-3.29.92-5 .77l-3.69-.32c-.67-.02-1.4.34-2.08.81-1.12.78-1.97 1.87-2.56 3.07l-.59 1.2c-.46.94-.7 1.96-.7 3v13.13l.58 12.19c.1 1.92-.51 3.81-1.73 5.34l-.61.77c-2.32 2.51-5.09 2.58-5.77 2.7-1.29.23-3.45.66-4.4 1.15-1.4.72-2.69 2.12-3.66 3.59-.91 1.36-1.53 2.39-.88 5.93.38 2.06 1.67 3.43 4.29 6 1.79 1.76 7.66 4.16 8.95 4.47 2.86.7 10.72-.45 12.58-3.12 1.86-2.67 7.87-9.05 7.95-9.3.06-.21-12.37 1.19-16.27 1.43l-.01-.04c-.22.01-.57-.35-.37-.44 2.64-1.16 9.98-4.56 14.63-10.22a6.696 6.696 0 0 0 1.36-5.7c-.44-1.96-.94-3.9-1.34-5.02-.24-.69-3.65-8.89-4.32-9.79-1.82-2.43-3.63-7.08-3.63-7.08s-1.73-4.52-1.08-4.92c.65-.4 1.61 3.01 3.43 3.84 1.82.83 8.23 4.6 10.32 6.33 1.41 1.17 2.87 3.92 3.09 4.34.24.47.83-.07.83-.07s7.61-13.52 8.71-15.64c.9-1.75 3.04-12.9 2.64-19.82-.19-3.35-2.72-8.25-2.72-8.25s-6.44-8.47-6.78-8.25zm98.622.96h.03c2 0 3.63 1.61 3.65 3.61 0 .97-.36 1.89-1.04 2.59a3.59 3.59 0 0 1-2.57 1.09c-1.98.05-3.66-1.6-3.68-3.61a3.65 3.65 0 0 1 3.61-3.68zm-149.829 1.689c.288-.071.393-.034.368.05v.01c-.48 1.72-1.2 3.721-1.87 7.641-.87 5.12-1.64 10.09-1.89 10.34-.35.34-1.44-7.34-4.16-10.89-.78-1.01-.23-2.7 1.17-3.75l4.92-2.8c.705-.35 1.175-.53 1.462-.601zm11.96.016c.288.072.758.255 1.458.605l4.92 2.8c1.4 1.06 1.95 2.74 1.17 3.75v-.01c-2.73 3.55-3.81 11.23-4.16 10.89-.26-.25-1.02-5.23-1.89-10.34-.67-3.93-1.39-5.92-1.87-7.64-.025-.09.083-.128.371-.055zm-41.512 12.355c.46 1.51 2.07 4.86 2.07 4.86 1.55 3.3 4.13 3.42 6.81 3.13 0 0 2.31-.98 4.44-.81 1.57.57-2.58-3.41-2.65-3.47-1.25-.98-4.3-2.06-5.51-2.43 0 0-3.97-1.2-5.16-1.28zm71.2 0c-1.19.08-5.16 1.28-5.16 1.28-1.22.37-4.269 1.45-5.509 2.43-.06.07-4.22 4.04-2.65 3.47 2.13-.17 4.44.81 4.44.81 2.68.29 5.26.17 6.81-3.13 0 0 1.61-3.36 2.07-4.86zm22.487 8.13c-.084.017-.156.085-.146.19l.01.01 1.2 16.63c.04.55.05 1.11.03 1.66l-.16 15.89c-.4 5.12-1.59 12.15-4.96 19.18-1.7 4.34-4.11 8.21-4.11 8.21-.02.05-.1.03-.09-.02l.55-6.11c.71-4.89.42-9.87-.86-14.66l-.22-.82c-.08-.32-.59-1.9-.87-1.89-.24.02-.11 1.01-.35 1.87l-8.19 27.52a32.94 32.94 0 0 1-2.26 5.63l-8.42 16.35c-.26.5.43.95.83.54 0 0 9.97-7.28 12.48-12.91 3.84-8.5 7.98-11.26 7.98-11.26.05-.06.14-.01.11.06-.85 2.4-2.26 13.83-2.26 13.83-.02.09.09.14.16.08 0 0 10.23-14.06 17.39-21.3 6.51-6.59 8.12-13.77 3.27-27.9l-10.9-30.66a.182.182 0 0 0-.214-.12zm-116.207.015a.184.184 0 0 0-.21.115l-10.9 30.66c-4.85 14.13-3.23 21.31 3.27 27.9 7.15 7.24 17.391 21.3 17.391 21.3.06.07.178.01.158-.08 0 0-1.41-11.43-2.26-13.83-.03-.07.072-.12.112-.06 0 0 4.138 2.75 7.978 11.26 2.5 5.63 12.48 12.91 12.48 12.91.4.41 1.09-.04.83-.54l-8.42-16.35.01-.01a32.15 32.15 0 0 1-2.26-5.63l-8.189-27.52c-.24-.86-.11-1.85-.35-1.87-.28-.02-.78 1.57-.87 1.89l-.219.82a36.452 36.452 0 0 0-.86 14.66l.55 6.11c0 .06-.07.08-.09.02 0 0-2.4-3.86-4.11-8.21-3.37-7.03-4.56-14.06-4.96-19.18l-.16-15.89c-.02-.55 0-1.11.03-1.66l1.2-16.63a.176.176 0 0 0-.15-.185zm196.08 40.545h.25a3.649 3.649 0 0 1 .25 7.29c-.98.07-1.91-.25-2.65-.89a3.616 3.616 0 0 1-1.24-2.5c-.06-.97.25-1.91.89-2.65v-.01c.64-.73 1.53-1.18 2.5-1.24zm-138.23 29.38c-3.94.43-10.39 5.95-15.5 6.65-3.79.52-6.85-.04-8.19-.36-.28-.07-.5.21-.37.45l4.48 8.32c.41.84.94 1.63 1.57 2.33l6.55 7.31c.19.21.55.08.53-.2-.12-1.91-.4-6.42-.43-7.25-.08-2.04.66-3.62 1.63-2.54.97 1.08 9.73 16.62 9.99 16.62.26 0 9.03-15.54 9.99-16.62.97-1.08 1.7.5 1.63 2.54-.03.83-.309 5.34-.429 7.25-.02.28.35.41.53.2l6.548-7.31c.63-.71 1.16-1.49 1.57-2.33l4.48-8.32c.13-.236-.084-.511-.358-.45h-.002c-1.34.32-4.41.88-8.19.36-5.11-.7-11.57-6.22-15.5-6.65h-.53z"
      style="display:inline" />
</svg>